<svg xmlns="http://www.w3.org/2000/svg" width="24" height="24" viewBox="0 0 24 24">
  <path id="Path_3597" data-name="Path 3597" d="M76.984,30.323h0c0-.108.016-.213.016-.322a12,12,0,1,0-21.134,7.771c.012.014.025.027.037.042.232.269.473.53.728.778.03.03.064.057.1.086.24.229.485.451.743.659.056.045.116.085.173.129.239.187.482.37.735.538.085.057.176.105.262.159.234.147.467.293.711.423.118.063.242.115.362.175.221.109.441.221.671.317.152.063.31.113.465.17.207.076.411.158.622.223.189.059.385.1.578.149s.369.1.558.141c.24.049.487.078.732.112.15.02.3.051.447.067.4.04.8.061,1.215.061s.816-.021,1.216-.061c.153-.016.3-.047.452-.068.244-.034.489-.063.728-.111.19-.039.373-.095.56-.142s.389-.09.578-.149c.212-.065.416-.147.622-.224.156-.057.315-.107.467-.17.232-.1.454-.211.679-.322.117-.058.239-.109.355-.171.248-.133.485-.281.722-.431.083-.052.17-.1.252-.153.259-.172.505-.358.749-.549.053-.041.109-.078.161-.12.262-.212.512-.438.755-.672.028-.026.058-.05.085-.077.258-.252.5-.517.738-.792.009-.01.019-.02.028-.031A11.939,11.939,0,0,0,76.984,30.323ZM65,19a11,11,0,0,1,9.208,5H70.055l-5.1,7H69.57l-8.332,6.571L63.642,28H59.45L61.9,24h-6.11A11,11,0,0,1,65,19Z" transform="translate(-53 -18)"/>
</svg>
