<svg xmlns="http://www.w3.org/2000/svg" width="24" height="24" viewBox="0 0 24 24">
  <g id="Group_661" data-name="Group 661" transform="translate(-24 -18)">
    <path id="Path_3599" data-name="Path 3599" d="M45.732,37c.012-.016.025-.032.037-.049q.319-.448.6-.925l.006-.01a11.912,11.912,0,0,0,1.6-5.482h0c.008-.179.027-.354.027-.535a12,12,0,0,0-24,0c0,.181.019.356.027.535h0a11.912,11.912,0,0,0,1.6,5.482l.006.01q.277.477.6.925c.012.017.025.033.037.049.2.284.419.56.647.824.026.031.054.059.081.089.218.248.442.489.68.718.045.044.094.084.14.128.225.209.453.414.693.606.07.056.144.107.216.161.224.172.45.341.687.5.1.064.2.121.3.182.219.136.438.271.666.393.129.068.264.126.4.19.209.1.416.206.631.3.161.066.328.119.492.179.2.072.39.149.591.211s.394.1.592.152c.179.045.355.1.538.135.242.048.49.078.737.112.146.02.289.05.436.065a12.031,12.031,0,0,0,2.42,0c.147-.015.29-.045.436-.065.247-.034.495-.064.737-.112.183-.037.359-.09.538-.135.2-.05.4-.093.592-.152s.4-.139.591-.211c.164-.06.331-.113.492-.179.215-.09.422-.194.631-.3.131-.064.266-.122.4-.19.228-.122.447-.257.666-.393.1-.061.2-.118.3-.182.237-.156.463-.325.687-.5.072-.054.146-.1.216-.161.24-.192.468-.4.693-.606.046-.044.1-.084.14-.128.238-.229.462-.47.68-.718.027-.03.055-.058.081-.089C45.313,37.561,45.528,37.285,45.732,37Zm-20.4-9.616c.356-.249.71-.505,1.075-.725l-.547-.908a11,11,0,0,1,20.29,0l-.547.908c.365.22.719.476,1.075.725a10.966,10.966,0,0,1,.318,2.44,19.269,19.269,0,0,0-21.982,0A10.966,10.966,0,0,1,25.327,27.385Z" />
    <path id="Path_3600" data-name="Path 3600" d="M38.171,22.6a20.283,20.283,0,0,0-4.351,0l.162,1.49a18.954,18.954,0,0,1,4.027,0Z" />
    <path id="Path_3601" data-name="Path 3601" d="M44.443,24.348a19.937,19.937,0,0,0-4.121-1.4L40,24.417a18.463,18.463,0,0,1,3.813,1.291Z" />
    <path id="Path_3602" data-name="Path 3602" d="M27.549,24.351l.633,1.36a18.519,18.519,0,0,1,3.812-1.292l-.324-1.465A20,20,0,0,0,27.549,24.351Z" />
  </g>
</svg>
