<svg xmlns="http://www.w3.org/2000/svg" width="24" height="24" viewBox="0 0 24 24">
  <path id="Path_3614" data-name="Path 3614" d="M68,98.555A11.987,11.987,0,0,0,51.1,87.61c-.018.006-.038.008-.056.015-.156.071-.317.157-.476.241-.214.109-.422.225-.628.346-.149.087-.3.175-.442.269s-.26.171-.387.261c-.186.13-.368.267-.547.408-.084.067-.171.131-.254.2-.238.2-.466.409-.689.626-.075.074-.149.15-.223.227q-.287.294-.552.607c-.044.052-.09.1-.133.153-.215.263-.417.535-.61.816-.043.063-.084.128-.126.192q-.24.364-.453.746c-.033.06-.068.118-.1.179-.164.306-.316.619-.453.941-.024.054-.044.111-.067.166q-.169.416-.309.846c-.025.077-.051.153-.075.231-.1.337-.192.679-.264,1.028-.009.043-.014.086-.022.128-.061.31-.108.624-.144.942-.011.094-.021.187-.03.282-.032.361-.055.725-.055,1.1a12,12,0,0,0,12,12c.37,0,.735-.023,1.1-.056.1-.008.193-.019.289-.03q.454-.053.9-.138c.059-.011.119-.019.178-.031.349-.073.692-.163,1.029-.265.073-.022.145-.048.217-.071q.422-.136.828-.3c.069-.028.138-.054.206-.084.324-.14.643-.291.952-.459.034-.018.067-.039.1-.057.275-.152.543-.316.8-.488.067-.045.134-.089.2-.135a11.991,11.991,0,0,0,1.6-1.32c.065-.063.127-.128.19-.192.194-.2.38-.4.56-.616.049-.058.1-.113.148-.172.208-.255.4-.519.591-.79.061-.089.118-.181.177-.272q.19-.294.364-.6c.063-.111.126-.221.186-.333.017-.034.038-.066.055-.1a2.247,2.247,0,0,0,.19-.38c.01-.025.014-.054.024-.08A11.936,11.936,0,0,0,68,98.555Zm-1,0a11.022,11.022,0,0,1-.271,2.4,3.2,3.2,0,0,0-2.139-1.648.127.127,0,0,0-.06-.01.611.611,0,0,0-.13-.03,11.97,11.97,0,0,1-9.12-9.13.711.711,0,0,0-.04-.2,3.181,3.181,0,0,0-1.624-2.112A10.974,10.974,0,0,1,67,98.555Zm-13.69-4.9a14.979,14.979,0,0,0,7.56,7.58c.01,0,.01.01.02.01a16.367,16.367,0,0,0,1.96.72.568.568,0,0,1,.22.07.991.991,0,0,1,.6.91.94.94,0,0,1-.14.5c0,.01-.01.01-.01.02a.607.607,0,0,1-.07.1l-.01.01a9.515,9.515,0,0,1-1.34,1.56,8.972,8.972,0,1,1-11.2-13.96.265.265,0,0,1,.06-.05.906.906,0,0,1,.16-.11.406.406,0,0,1,.09-.05,1.007,1.007,0,0,1,.39-.08.994.994,0,0,1,.93.63c.02.06.03.11.05.17A14.475,14.475,0,0,0,53.31,93.655Z" transform="translate(-44 -86.555)"/>
</svg>
