<svg xmlns="http://www.w3.org/2000/svg" width="24" height="24" viewBox="0 0 24 24">
  <g id="Group_662" data-name="Group 662" transform="translate(-24 -46)">
    <path id="Path_3603" data-name="Path 3603" d="M47.9,56.522c-.007-.05-.016-.1-.023-.148A11.961,11.961,0,0,0,47.607,55h0a11.985,11.985,0,0,0-23.214,0h0a11.962,11.962,0,0,0-.27,1.374c-.007.049-.016.1-.023.148A12.2,12.2,0,0,0,24,58a12,12,0,0,0,24,0A12.2,12.2,0,0,0,47.9,56.522ZM36,47a11.013,11.013,0,0,1,10.574,8H39.512l.024.024-2.829,2.828L36,58.559l-3.536-3.535L32.437,55H25.426A11.013,11.013,0,0,1,36,47Z" />
    <path id="Path_3604" data-name="Path 3604" d="M36,55.559,33.172,52.73l-.707.707L36,56.973l.707-.707,2.828-2.828-.707-.707Z" />
    <path id="Path_3605" data-name="Path 3605" d="M36.707,53.289l3.536-3.536H31.757L36,54Z" />
  </g>
</svg>
