<svg xmlns="http://www.w3.org/2000/svg" width="24" height="24" viewBox="0 0 24 24">
  <path id="Path_3607" data-name="Path 3607" d="M74.353,65.413A11.988,11.988,0,0,0,75.8,63.032c.021-.046.045-.091.066-.137.092-.208.173-.421.254-.635.05-.133.1-.265.146-.4.063-.185.119-.372.172-.56s.1-.357.138-.538.077-.331.109-.5c.043-.226.075-.455.1-.686.018-.135.04-.268.053-.4.035-.373.057-.751.057-1.134s-.022-.76-.057-1.133c-.013-.137-.035-.27-.053-.4-.029-.231-.061-.46-.1-.686-.032-.169-.07-.335-.109-.5s-.087-.359-.137-.535-.11-.378-.173-.563c-.045-.134-.1-.266-.146-.4-.08-.214-.162-.428-.254-.636-.021-.047-.045-.091-.066-.138a11.944,11.944,0,0,0-1.448-2.379h0A11.979,11.979,0,0,0,54,53.046c-.021.045-.045.088-.065.133-.092.209-.174.422-.254.637-.051.132-.1.264-.146.4-.063.185-.119.371-.172.56s-.1.357-.138.538-.077.331-.109.5c-.043.226-.075.455-.1.686-.018.135-.04.268-.053.4-.035.373-.057.751-.057,1.133s.022.761.057,1.134c.013.137.035.27.053.4.029.231.061.46.1.686.032.169.07.334.109.5s.087.36.138.538.109.375.172.56c.045.135.095.267.146.4.08.215.162.428.254.637.02.045.044.088.064.132a11.98,11.98,0,0,0,20.356,2.385ZM64.9,47.037a10.981,10.981,0,0,1,8.54,4.081,19.962,19.962,0,0,1-17.08,0A10.981,10.981,0,0,1,64.9,47.037Zm.045,11.771a11.989,11.989,0,0,0-3.52.52v1.5l-1.1-1.1-1.91-1.92,1.92-1.92,1.09-1.09v1.48a11.95,11.95,0,0,0,6.94.03V54.8l1.12,1.11,1.9,1.9-1.9,1.9-1.12,1.12v-1.52A12.035,12.035,0,0,0,64.945,58.808ZM64.9,69.037a10.98,10.98,0,0,1-8.54-4.08,19.953,19.953,0,0,1,17.08,0A10.98,10.98,0,0,1,64.9,69.037Z" transform="translate(-52.9 -46.037)" />
</svg>
