<svg xmlns="http://www.w3.org/2000/svg" width="20.87" height="24" viewBox="0 0 20.87 24">
  <g id="update_node_detail" transform="translate(12302.936 -16521)">
    <path id="Polygon_17" data-name="Polygon 17" d="M16.843,0a2,2,0,0,1,1.734,1l4.85,8.435a2,2,0,0,1,0,1.994l-4.85,8.435a2,2,0,0,1-1.734,1H7.157a2,2,0,0,1-1.734-1L.573,11.432a2,2,0,0,1,0-1.994L5.423,1A2,2,0,0,1,7.157,0Z" transform="translate(-12282.066 16521) rotate(90)" fill="#09c"/>
    <g id="Polygon_19" data-name="Polygon 19" transform="translate(-12282.936 16522) rotate(90)" fill="#09c">
      <path d="M 15.34294986724854 18.63043785095215 L 6.657050132751465 18.63043785095215 C 6.121779918670654 18.63043785095215 5.623509883880615 18.34217643737793 5.356689929962158 17.87814712524414 L 1.00669002532959 10.31291675567627 C 0.7415099740028381 9.851716995239258 0.7415099740028381 9.278717041015625 1.00669002532959 8.817506790161133 L 5.356689929962158 1.252297043800354 C 5.623519897460938 0.7882570028305054 6.121789932250977 0.4999970197677612 6.657060146331787 0.4999970197677612 L 15.34294986724854 0.4999970197677612 C 15.87821960449219 0.4999970197677612 16.37648963928223 0.7882570028305054 16.643310546875 1.252297043800354 L 20.99331092834473 8.817517280578613 C 21.25849914550781 9.278717041015625 21.25849914550781 9.851716995239258 20.99331092834473 10.31291675567627 L 16.643310546875 17.87813758850098 C 16.37648963928223 18.34217643737793 15.87821960449219 18.63043785095215 15.34294986724854 18.63043785095215 Z" stroke="none"/>
      <path d="M 6.657050132751465 0.9999961853027344 C 6.300200462341309 0.9999961853027344 5.968019485473633 1.192167282104492 5.790149688720703 1.501527786254883 L 1.440139770507813 9.066757202148438 C 1.263349533081055 9.37421703338623 1.263349533081055 9.756217002868652 1.440149307250977 10.06368732452393 L 5.790149688720703 17.62890625 C 5.96803092956543 17.93825721740723 6.300200462341309 18.13042640686035 6.657050132751465 18.13042640686035 L 15.34296989440918 18.13042640686035 C 15.69981002807617 18.13042640686035 16.03198051452637 17.93825721740723 16.2098503112793 17.62890625 L 20.55985069274902 10.06368732452393 C 20.73664093017578 9.756217002868652 20.73664093017578 9.37421703338623 20.55985069274902 9.066746711730957 L 16.2098503112793 1.501527786254883 C 16.03198051452637 1.192167282104492 15.69980049133301 0.9999961853027344 15.34294986724854 0.9999961853027344 L 6.657050132751465 0.9999961853027344 M 6.657050132751465 -3.814697265625e-06 L 15.34294986724854 -3.814697265625e-06 C 16.05874061584473 -3.814697265625e-06 16.7199592590332 0.3825263977050781 17.07675933837891 1.003057479858398 L 21.42675971984863 8.568277359008789 C 21.78166961669922 9.185517311096191 21.78166961669922 9.944916725158691 21.42675971984863 10.56215667724609 L 17.07675933837891 18.12737655639648 C 16.7199821472168 18.74785995483398 16.05871772766113 19.13042640686035 15.34296798706055 19.13042640686035 C 15.34292411804199 19.13042640686035 15.34298324584961 19.13042640686035 15.34293937683105 19.13042640686035 L 6.657050132751465 19.13042640686035 C 5.941259384155273 19.13043785095215 5.280040740966797 18.74789619445801 4.923240661621094 18.12737655639648 L 0.5732402801513672 10.56215667724609 C 0.2183208465576172 9.944916725158691 0.2183208465576172 9.185517311096191 0.5732402801513672 8.568277359008789 L 4.923240661621094 1.003057479858398 C 5.280040740966797 0.3825263977050781 5.941259384155273 -3.814697265625e-06 6.657050132751465 -3.814697265625e-06 Z" stroke="none" fill="#fbfbfb"/>
    </g>
  </g>
</svg>
